HIERARCHY
ROOT Hips
{
	OFFSET -14.64140 90.27770 -84.91600
	CHANNELS 6 Xposition Yposition Zposition Zrotation Xrotation Yrotation
	JOINT Spine
	{
		OFFSET 0.00000 13.20850 -1.60436
		CHANNELS 3 Zrotation Xrotation Yrotation
		JOINT Spine1
		{
			OFFSET 0.00000 8.61716 0.00000
			CHANNELS 3 Zrotation Xrotation Yrotation
			JOINT Spine2
			{
				OFFSET 0.00000 8.61717 0.00000
				CHANNELS 3 Zrotation Xrotation Yrotation
				JOINT Spine3
				{
					OFFSET 0.00000 8.61717 0.00000
					CHANNELS 3 Zrotation Xrotation Yrotation
					JOINT Neck
					{
						OFFSET 0.00000 11.07920 1.10792
						CHANNELS 3 Zrotation Xrotation Yrotation
						JOINT Neck1
						{
							OFFSET 0.00000 7.08032 0.00000
							CHANNELS 3 Zrotation Xrotation Yrotation
							JOINT Head
							{
								OFFSET 0.00000 7.08031 0.00000
								CHANNELS 3 Zrotation Xrotation Yrotation
								End site
								{
									OFFSET 0.00000 0.00000 0.00000
								}
							}
						}
					}
					JOINT RightShoulder
					{
						OFFSET -0.01000 7.91373 5.19711
						CHANNELS 3 Zrotation Xrotation Yrotation
						JOINT RightArm
						{
							OFFSET -18.41580 0.00000 0.00000
							CHANNELS 3 Zrotation Xrotation Yrotation
							JOINT RightForeArm
							{
								OFFSET -29.11090 0.00000 0.00000
								CHANNELS 3 Zrotation Xrotation Yrotation
								JOINT RightHand
								{
									OFFSET -24.65040 0.00000 0.00000
									CHANNELS 3 Zrotation Xrotation Yrotation
									JOINT RightHandThumb1
									{
										OFFSET -5.35114 -0.85590 3.97906
										CHANNELS 3 Zrotation Xrotation Yrotation
										JOINT RightHandThumb2
										{
											OFFSET -4.52789 0.00000 0.00000
											CHANNELS 3 Zrotation Xrotation Yrotation
											JOINT RightHandThumb3
											{
												OFFSET -2.46976 0.00000 0.00000
												CHANNELS 3 Zrotation Xrotation Yrotation
												End site
												{
													OFFSET 0.00000 0.00000 0.00000
												}
											}
										}
									}
									JOINT RightHandIndex1
									{
										OFFSET -14.26970 0.00000 2.88139
										CHANNELS 3 Zrotation Xrotation Yrotation
										JOINT RightHandIndex2
										{
											OFFSET -5.48836 0.00000 0.00000
											CHANNELS 3 Zrotation Xrotation Yrotation
											JOINT RightHandIndex3
											{
												OFFSET -3.01859 0.00000 0.00000
												CHANNELS 3 Zrotation Xrotation Yrotation
												End site
												{
													OFFSET 0.00000 0.00000 0.00000
												}
											}
										}
									}
									JOINT RightHandMiddle1
									{
										OFFSET -14.26970 0.00000 -0.09147
										CHANNELS 3 Zrotation Xrotation Yrotation
										JOINT RightHandMiddle2
										{
											OFFSET -6.17441 0.00000 0.00000
											CHANNELS 3 Zrotation Xrotation Yrotation
											JOINT RightHandMiddle3
											{
												OFFSET -3.56743 0.00000 0.00000
												CHANNELS 3 Zrotation Xrotation Yrotation
												End site
												{
													OFFSET 0.00000 0.00000 0.00000
												}
											}
										}
									}
									JOINT RightHandRing1
									{
										OFFSET -12.69180 0.00000 -3.06433
										CHANNELS 3 Zrotation Xrotation Yrotation
										JOINT RightHandRing2
										{
											OFFSET -5.62556 0.00000 0.00000
											CHANNELS 3 Zrotation Xrotation Yrotation
											JOINT RightHandRing3
											{
												OFFSET -3.56744 0.00000 0.00000
												CHANNELS 3 Zrotation Xrotation Yrotation
												End site
												{
													OFFSET 0.00000 0.00000 0.00000
												}
											}
										}
									}
									JOINT RightHandPinky1
									{
										OFFSET -11.11390 0.00000 -6.03719
										CHANNELS 3 Zrotation Xrotation Yrotation
										JOINT RightHandPinky2
										{
											OFFSET -4.52789 0.00000 0.00000
											CHANNELS 3 Zrotation Xrotation Yrotation
											JOINT RightHandPinky3
											{
												OFFSET -2.46976 0.00000 0.00000
												CHANNELS 3 Zrotation Xrotation Yrotation
												End site
												{
													OFFSET 0.00000 0.00000 0.00000
												}
											}
										}
									}
								}
							}
						}
					}
					JOINT LeftShoulder
					{
						OFFSET 0.01000 7.91373 5.19711
						CHANNELS 3 Zrotation Xrotation Yrotation
						JOINT LeftArm
						{
							OFFSET 18.41580 0.00000 0.00000
							CHANNELS 3 Zrotation Xrotation Yrotation
							JOINT LeftForeArm
							{
								OFFSET 29.11090 0.00000 0.00000
								CHANNELS 3 Zrotation Xrotation Yrotation
								JOINT LeftHand
								{
									OFFSET 24.65040 0.00000 0.00000
									CHANNELS 3 Zrotation Xrotation Yrotation
									JOINT LeftHandThumb1
									{
										OFFSET 5.35114 -0.85590 3.97906
										CHANNELS 3 Zrotation Xrotation Yrotation
										JOINT LeftHandThumb2
										{
											OFFSET 4.52789 0.00000 0.00000
											CHANNELS 3 Zrotation Xrotation Yrotation
											JOINT LeftHandThumb3
											{
												OFFSET 2.46977 0.00000 0.00000
												CHANNELS 3 Zrotation Xrotation Yrotation
												End site
												{
													OFFSET 0.00000 0.00000 0.00000
												}
											}
										}
									}
									JOINT LeftHandIndex1
									{
										OFFSET 14.26970 0.00000 2.88139
										CHANNELS 3 Zrotation Xrotation Yrotation
										JOINT LeftHandIndex2
										{
											OFFSET 5.48836 0.00000 0.00000
											CHANNELS 3 Zrotation Xrotation Yrotation
											JOINT LeftHandIndex3
											{
												OFFSET 3.01859 0.00000 0.00000
												CHANNELS 3 Zrotation Xrotation Yrotation
												End site
												{
													OFFSET 0.00000 0.00000 0.00000
												}
											}
										}
									}
									JOINT LeftHandMiddle1
									{
										OFFSET 14.26970 0.00000 -0.09147
										CHANNELS 3 Zrotation Xrotation Yrotation
										JOINT LeftHandMiddle2
										{
											OFFSET 6.17440 0.00000 0.00000
											CHANNELS 3 Zrotation Xrotation Yrotation
											JOINT LeftHandMiddle3
											{
												OFFSET 3.56744 0.00000 0.00000
												CHANNELS 3 Zrotation Xrotation Yrotation
												End site
												{
													OFFSET 0.00000 0.00000 0.00000
												}
											}
										}
									}
									JOINT LeftHandRing1
									{
										OFFSET 12.69180 0.00000 -3.06433
										CHANNELS 3 Zrotation Xrotation Yrotation
										JOINT LeftHandRing2
										{
											OFFSET 5.62556 0.00000 0.00000
											CHANNELS 3 Zrotation Xrotation Yrotation
											JOINT LeftHandRing3
											{
												OFFSET 3.56744 0.00000 0.00000
												CHANNELS 3 Zrotation Xrotation Yrotation
												End site
												{
													OFFSET 0.00000 0.00000 0.00000
												}
											}
										}
									}
									JOINT LeftHandPinky1
									{
										OFFSET 11.11390 0.00000 -6.03719
										CHANNELS 3 Zrotation Xrotation Yrotation
										JOINT LeftHandPinky2
										{
											OFFSET 4.52789 0.00000 0.00000
											CHANNELS 3 Zrotation Xrotation Yrotation
											JOINT LeftHandPinky3
											{
												OFFSET 2.46976 0.00000 0.00000
												CHANNELS 3 Zrotation Xrotation Yrotation
												End site
												{
													OFFSET 0.00000 0.00000 0.00000
												}
											}
										}
									}
								}
							}
						}
					}
					JOINT pCube4
					{
						OFFSET 0.00000 10.91090 1.10792
						CHANNELS 3 Zrotation Xrotation Yrotation
						End site
						{
							OFFSET 0.00000 0.00000 0.00000
						}
					}
				}
			}
		}
	}
	JOINT RightUpLeg
	{
		OFFSET -9.98441 0.00000 0.00000
		CHANNELS 3 Zrotation Xrotation Yrotation
		JOINT RightLeg
		{
			OFFSET 0.00000 -42.11790 0.00000
			CHANNELS 3 Zrotation Xrotation Yrotation
			JOINT RightFoot
			{
				OFFSET 0.00000 -45.00020 -0.00001
				CHANNELS 3 Zrotation Xrotation Yrotation
				JOINT RightForeFoot
				{
					OFFSET 0.00000 -3.74820 0.00000
					CHANNELS 3 Zrotation Xrotation Yrotation
					JOINT RightToeBase
					{
						OFFSET 0.00000 0.06325 14.43120
						CHANNELS 3 Zrotation Xrotation Yrotation
						End site
						{
							OFFSET 0.00000 0.00000 0.00000
						}
					}
				}
			}
		}
	}
	JOINT LeftUpLeg
	{
		OFFSET 9.98441 0.00000 0.00000
		CHANNELS 3 Zrotation Xrotation Yrotation
		JOINT LeftLeg
		{
			OFFSET 0.00000 -42.11800 0.00000
			CHANNELS 3 Zrotation Xrotation Yrotation
			JOINT LeftFoot
			{
				OFFSET 0.00000 -45.00070 0.00000
				CHANNELS 3 Zrotation Xrotation Yrotation
				JOINT LeftForeFoot
				{
					OFFSET 0.00000 -3.74824 0.00000
					CHANNELS 3 Zrotation Xrotation Yrotation
					JOINT LeftToeBase
					{
						OFFSET 0.00000 0.06325 14.43110
						CHANNELS 3 Zrotation Xrotation Yrotation
						End site
						{
							OFFSET 0.00000 0.00000 0.00000
						}
					}
				}
			}
		}
	}
}
MOTION
Frames: 4
Frame Time: 0.050000
-0.02368251032030479 0.016027047379084707 -0.03479465591697645 -0.030005372148554407 0.010649366102944821 -0.026821634552847053 3.2634659766317258 2.3434603315536204 -1.8589381246267476 -0.6151263665253257 3.6642739094764565 0.3649583452368384 -0.6824166955069247 -1.5437991365111712 1.0478790869099313 -0.602655372830076 -0.4328091747164829 -0.3006667097609399 0.1429138622624345 13.519499926614692 -1.60539990682817 0.36481542564909447 -0.04702346531524566 -4.255633107131355 0.9218340648854042 -15.966610524094822 -0.3933455675566336 -7.87100431829325 2.7961046958089684 -16.44637271439859 76.13807531394926 15.2612653652539 10.553553747830225 1.464169032499914 0.8156648282028708 89.56540983336731 21.20468234808359 -0.5503226346797444 -4.373722419538157 4.519980987782199 -0.1339630720010058 -1.575994848106282 0.03301039137455798 0.02582730647603141 -56.232285519369434 -0.021199959228668692 -0.009447737836824515 -56.206145649417785 -38.77405531685838 -0.033913816859788115 -0.039994885576162285 0.03318853011098074 0.03882826007253603 0.04889656950881235 0.049718244677298934 0.007965697072178974 0.0037933036912161603 -36.677440852451696 0.027422093331724684 -0.03040809917358669 0.031091020818004838 0.01709019571568787 -0.01679980626946661 -0.006724457623095435 -0.0261600611422782 0.04721251227936813 -19.711796532125696 0.0370533494606139 -0.04724198803069529 0.038677401021141505 -0.0243781269710189 0.008991573979832539 0.004409339670053119 -0.041079219346335204 0.021982181157322162 24.099789056115267 0.0402725231504539 -0.012039535909814094 28.856167483968843 -0.0044412344999102404 0.02964846642330616 28.876022662046292 0.03787396937743965 -0.021441433577035904 8.66842591914524 2.1506057190048296 14.613799125217676 -74.55293311652733 24.70043812354329 -11.423929212414118 -16.659139787378002 3.2194515045150465 -83.88807545867445 -23.42410689644184 -2.7111425918168393 1.6469879072705673 -0.4517172039748351 0.05602563637198542 -8.077682546294998 -0.006218772926125031 0.00938710475901394 44.57000381094626 0.04617717611569041 0.03752341824214685 44.540943072281735 12.41989291446173 0.003979510015390162 0.014426972184462155 0.016338167075902008 -0.047978448281252924 -0.029620463631106136 -0.04318058784562106 0.026004228668970612 0.004637513719251217 11.117160915209409 -0.01640166415320551 -0.021274325367152205 -0.006642954931080472 0.04215435484498139 0.04202989051178323 0.008218893889910504 0.022469298275478906 -0.04292855237034898 4.805091335398728 0.007296110811498524 0.007758992807168626 0.04142655041986674 -0.004979647987235619 0.0174235467894464 -0.03382568439897278 0.03412732898484559 -0.016513787845778144 -5.564876722377215 -0.00709054902226813 0.037292960426800366 -6.759581054141863 0.03817633903027412 0.031408784983656735 -6.674646332797571 -0.02784880688270639 0.02924010598695359 0.004298501679745466 -0.020836769775480202 -0.04704426020283383 7.9951543497027195 3.4908586971666598 -19.236987261327442 -0.045089223848338245 10.381681886703984 0.006005206444940965 -5.609738584337166 -15.650295505647248 3.172955500522227 0.03617461868658215 -0.0058810270134878875 0.021896541469316765 0.030652620500657948 4.6971756279327685 0.0036911863705652117 12.469390891697014 -8.229703984715764 6.881410878539697 -0.012085749850339392 46.368383948572244 0.02234154045673798 -4.355363814076741 -14.763891502232461 -3.819875980350964 -0.012796890371272745 -0.02310208932123804 -0.007689125541085266 -0.004284598198363882 -10.730462009489258 -0.03858810740989685 
-0.036317610369184315 0.03860212113132301 -0.04977140868558636 0.012156644495692275 -0.018996855095871183 0.03646351273291796 3.688979550377578 2.38915104597909 -1.8779619033368766 -0.616001762183919 3.6802820182817735 0.3043957392245348 -0.6093528837214273 -1.5454233769672343 1.0145998612444862 -0.508258181495924 -0.3305133091099627 -0.297421318820522 0.07087212268489357 13.651662626762628 -1.491665783282119 0.34733288328683837 0.16582505609975173 -3.8401145232824407 0.8997814147822254 -15.724817748908128 -0.3181010950922774 -8.357112003661632 2.9486217954676146 -16.827798917846426 76.6964746954258 16.994268270873793 9.520527303314893 -0.6217095862157949 0.29379254984561 87.77704084954983 21.10834302273076 -0.5627273002328901 -4.618270996036446 4.57083849483705 -0.10314024421624593 -1.5899786724369647 0.0056146700940388865 0.019907453690965107 -56.21981743252092 0.00817062776844398 -0.014933478489741076 -56.24759753817763 -38.806849548369954 -0.021087353101897483 0.019840416982514524 -0.037345386398990946 -0.03166377059451123 -0.01936075256809975 -0.02647465296996424 0.030780273314903978 -0.010083419820198943 -36.67716344956786 -0.01375683836137092 0.031016790088855332 0.022761904895706217 -0.01660398245511657 0.019150240920390495 -0.019219773447673665 0.004680085423770638 0.03550159350820765 -19.71879713751931 0.006564268612016443 0.0029970261208193787 -0.045502986902365775 -0.04468199711351791 -0.0017405888957111241 0.032859522798584916 -0.014546436455720452 0.02024042954072303 24.031085043506657 0.026388964731102773 -0.04017021869714143 28.863931807973483 -0.03567802726768162 -0.04001448995429594 28.85549351983128 0.005388525305590835 0.047646497072097505 9.14556766668924 2.242692395294027 14.773460683841812 -74.29536516972962 25.67727815897993 -11.658438657382831 -15.468978254682188 2.6541045884256524 -83.33891256191804 -23.2274053061852 -3.721921976000071 2.307142014827293 -0.5053418654619805 0.09092128308216164 -8.1287409865981 -0.017973049291851288 0.03132531861993695 44.54042983067091 0.003151954724008091 0.0432287403922066 44.54391564149735 12.481318447934854 -0.03756478597098676 0.013448742712582031 -0.04956870999919262 -0.026063257810390515 0.04140640450213042 0.027190419942771795 -0.0004179560879764077 -0.015749636099704187 11.14403715195242 -0.012555941414099376 -0.04866523672735568 -0.03858662699009277 0.015087193037996435 -0.020790790081319593 0.0042256610390394665 0.007857117186685546 0.01649476996570144 4.800882600196039 0.0022601933060264227 -0.015388275932645539 -0.007017366256337478 0.04452508898240426 -0.03086302329088093 -0.015155990922472882 0.010498797603107141 -0.003936189167542714 -5.608269162060941 -0.024107685087724953 0.03710934148572623 -6.754115556434027 -0.006721168730576309 0.01250446319905087 -6.696307202287237 0.007982347858814947 -0.036241127901470487 0.045278266303762305 0.02063066378637937 0.033985777830157056 8.066196297993267 3.502719003215902 -19.222485648371194 -0.0024545049444487047 10.374724677541016 -0.012546748265798446 -5.668041733825415 -15.680988002944707 3.1793309568486867 -0.010093679797820816 -0.00799648357864602 -0.017084121573867298 -0.009064472735193797 4.68425236854213 0.01051746236427052 12.470832019240236 -8.238660583279007 6.917651002057763 -0.015252064883138603 46.39543538286826 0.016822392276161936 -4.331213307749146 -14.792614318069871 -3.8288021727438477 0.012171907318882038 -0.023133694119682205 0.00937268461220356 -0.0492605630257243 -10.69993027676951 -0.03862747132446945 
-0.0113802052459844 -0.008059890388029086 0.03420144394965607 -0.011547088897916143 -0.04263836194282883 0.04884797546941482 4.04069289706405 2.3977278788654357 -1.9644735793954504 -0.5969463333655083 3.652523065196837 0.35464541068094624 -0.651879639134785 -1.5687384458211753 0.9484137479797924 -0.5180571484530364 -0.2641213522409725 -0.25054873080843315 0.028350824905894873 13.888736985405497 -1.3432500790646889 0.4069173584445248 0.2710117765158113 -3.2860804120833396 0.8240499433788762 -15.544344341630781 -0.2585412854099576 -8.724184736284897 3.0691936392785024 -16.97948751372536 77.30863868576812 18.804232390836727 8.950542457867853 -2.098223031342978 0.09790362180704439 86.58695819603719 21.058362221823646 -0.5004556540274271 -4.823551624518651 4.54285647191345 -0.17154429605742927 -1.6050451132406778 0.04149051984041861 -0.013601866994510756 -56.25006091338679 -0.03195777268520204 -0.00809905847717786 -56.23899436732189 -38.7557047302827 0.010195521963921641 -0.01136102557290596 -0.013837705626807834 -0.01812834835186816 0.02877306682413267 0.00812435261818745 0.02440912941734657 0.04658169723355506 -36.68742297564114 -0.017390655844932375 -0.006181550899202312 0.01484349695830647 -0.011268506157085812 -0.011304653178332173 -0.0404025971406834 0.02946686907784416 0.04835477612700228 -19.759038076733763 -0.042601497735891 -0.008225037316859042 -0.007912316255627518 0.009552303743804632 -0.030077660647185003 0.04663864650066354 -0.02136126075062484 -0.04688402537582621 24.05380611864913 0.003774914001128521 -0.030775293636575607 28.850916502432845 -0.024413913507346962 0.015552867930884938 28.910636502809375 0.02549706135692949 -0.02868473338451934 9.698789758137774 2.327119009532894 14.919824159986744 -74.09004452652931 26.56403446747508 -12.222701086032576 -14.800142059255371 2.521569229745897 -83.30613031751847 -23.460063484253087 -4.765629409880739 3.154934221217907 -0.511362237653565 0.029035519024196328 -8.132867818115049 -0.025012787835205278 0.006373302418123361 44.56769838783563 -0.021767224166076498 0.008836703304289288 44.52108444899936 12.427021074791055 0.031791678524283336 -0.031395879362358645 -0.0018994839837685488 -0.01719634752769834 -0.013171829411371362 0.03177523402967581 0.03696365729744486 0.008800121995068433 11.070455950266915 -0.01986023101860468 -0.04572017513434311 0.018181630335055904 0.01636797502080819 -0.03236445181107533 -0.018822476159868533 -0.034139562873091694 -0.018481266850786448 4.760640039976095 0.012324910091886984 -0.026955322291826542 -0.022626125998658007 0.006227817667362768 -0.009128202634736286 0.043523093470111546 -0.024469135766376205 -0.024244471422841824 -5.594358822514995 -0.02907333738062863 -0.01200280071011416 -6.711877819802499 -0.01830059445298651 0.0002085185525694957 -6.750314337430509 0.009952491020137675 -0.014974003158155594 0.004634405995485216 0.008435279867085933 0.014668237228625158 8.034496078897146 3.522593599074962 -19.20788882612661 0.007236257894626394 10.367939519242274 -0.01533960417627524 -5.6325755231826555 -15.687180533185973 3.2337804502102823 0.0027006334496313313 -0.03952861655240703 0.03471879458521031 -0.04949837219568283 4.680079841993319 -0.042604698069375745 12.460062772341699 -8.248560849141297 6.91547560220538 -0.02705855279838584 46.42642852508014 0.02821857989693863 -4.373799573335357 -14.793585465145597 -3.8328681443522687 -0.02876767970218196 -0.026525619254206347 0.0033892739590951756 -0.008259711552859265 -10.739587891097083 -0.0307535022785912 
0.032234610007644375 -0.02797099234117772 -0.01345030579993645 0.004556346424768621 0.029431039357329672 0.016688621188667836 4.273199598131004 2.3003723138559096 -2.0132853880583923 -0.6421181895896202 3.6437612075374513 0.34781528749544294 -0.6006828273005401 -1.5208185388878455 0.8946346634285989 -0.46220983354142303 -0.20795223616333652 -0.2734883172850124 -0.07490253074039999 14.145499266314756 -1.143163417772727 0.31670028332830774 0.5157217145388664 -2.665081909780023 0.6986763290025172 -15.307744949662885 -0.2164987329310685 -9.014761577818996 3.131289832075969 -17.152946436739555 77.87509060542946 20.188928488302736 8.59166978251211 -3.2680886252695434 0.10044567512940933 86.30307200909195 21.08670351792651 -0.5241825029795091 -5.127299724542615 4.574093789021809 -0.16697362588669748 -1.6122508314446005 -0.042190710899781624 0.007902865943048709 -56.25396434263753 -0.008393661435976031 -0.03355696997527995 -56.259298231919225 -38.778324053710996 -0.044663602350115544 0.005399037717902358 -0.004518810800338496 -0.03561997616473972 -0.015599871510916703 -0.016037712580946353 0.027547140127799703 -0.00039025623174421785 -36.713726228134746 0.044363218145681255 0.03454096949758033 0.014084857872390682 -0.018042271970583983 -0.0007464907023765163 -0.0015632375508397457 0.02500716606896557 -0.0014837767207031604 -19.75879310951682 0.010568344388743057 0.00586766036596141 -0.0028392467511834047 -0.004152461179861599 0.03626562165304021 -0.03152740834808216 0.0028790782014949307 0.022546255104417243 24.03657146272715 -0.048365202800293605 0.0358292941165832 28.832562228364143 -0.012947903919405103 -0.0035340889816594507 28.860509557562576 0.04125230767364353 0.004773988258711199 10.107695988105698 2.4408167546147403 15.029556146888686 -73.93083782772788 26.859703504330245 -12.865312428665625 -14.908761782830867 2.7796542523650043 -83.92562331472286 -23.61510794011649 -5.780003946977988 3.8714901227703122 -0.434047041079514 0.08957222193879164 -8.128302416959777 0.019273669586846936 -0.04405171619873102 44.583304199443084 -0.012110920780024565 0.014532676619140804 44.54149392159001 12.427093156826594 0.035190806224832664 0.020141146826946284 0.04915595022802123 0.0434121334430392 -0.03624862319206547 0.04598552087166209 -0.007087835847193335 0.027380504428730003 11.10857781508713 0.02093801921055776 -0.0008315339756793755 0.032522434550490815 0.02066110123636321 0.007306248571998209 0.029847759306806877 0.045660416269120915 -0.006373264560493289 4.7785777946502375 -0.028171594273773408 -0.0062754149291348585 -0.00020040577335982945 0.021768095500973056 -0.012542136906316758 0.049253099647848915 0.010789660299965148 -0.03184849816785685 -5.558961695733626 0.009068837898090779 -0.01991475502671522 -6.729846628980492 -0.005469100795200952 -0.03211042889709038 -6.735751361613122 -0.04412969319642098 0.041868772038832915 0.04598361529334974 -0.04202801499994638 0.02014951277429187 8.075902834347852 3.467505374214861 -19.23816653234035 0.041122864041235184 10.407834932954703 -0.02113584895854456 -5.601004429026355 -15.69413606234894 3.2036848891864698 0.0278737094820303 -0.04608262021775126 -0.04621891908715012 -0.02724623456866147 4.7208473324772715 -0.007105753232237035 12.410909997992563 -8.202233889492545 6.860788548007443 -0.016165393872209 46.361530292727096 0.033194135612251575 -4.2773737871737625 -14.708747310954426 -3.8609722858529745 -0.039916182949832194 0.010122349313209742 -0.03299115706778407 -0.0034512460068017426 -10.735304008521537 -0.031743043164557415 
